<?xml version="1.0" encoding="iso-8859-1"?>
<!-- Generator: Adobe Illustrator 16.0.0, SVG Export Plug-In . SVG Version: 6.00 Build 0)  -->
<!DOCTYPE svg PUBLIC "-//W3C//DTD SVG 1.1//EN" "http://www.w3.org/Graphics/SVG/1.1/DTD/svg11.dtd">
<svg version="1.1" id="Capa_1" xmlns="http://www.w3.org/2000/svg" xmlns:xlink="http://www.w3.org/1999/xlink" x="0px" y="0px"
	 width="471.315px" height="471.316px" viewBox="0 0 471.315 471.316" style="enable-background:new 0 0 471.315 471.316;"
	 xml:space="preserve">
<g>
	<g>
		<path d="M11.852,429.596c0.683,6.172-3.423,13.706,6.512,14.05c9.94,0.345,14.739,10.628,17.484,16.11
			c2.741,5.478-5.478,13.024,4.462,11.312c9.935-1.715,61.229-23.764,61.229-23.764l-13.227-9.125l0.367-7.173
			c0,0,12.389,4.845,21.302-9.546c8.908-14.399,23.958-6.204,23.958-6.204l-10.998-29.506l31.903-30.473l-0.627-7.486l46.727-43.067
			l13.603,3.318l20.224-20.222l-2.074-7.555c0,0,17.467-20.237,31.521-34.283c14.054-14.054,23.744-14.637,23.744-14.637
			c31.875-8.564,14.259-22.075,14.259-22.075s53.467-53.471,69.564-69.569c16.114-16.112,7.851-30.541,7.851-30.541
			s38.019-47.672,60.978-65.834c22.97-18.166,22.272-21.596,22.272-21.596l-11.677-6.854l-5.166-1.725
			C448.446-3.641,433.33,0.435,433.33,0.435l-82.244,82.248l-5.49,5.479l-25.022,25.022l-13.433,2.338L191.993,230.68
			c10.127-20.27-11.934-19.468-11.934-19.468l-19.124-19.814c-4.458,5.14-20.841,8.632-20.841,8.632
			c-21.588,21.588-44.959,54.427-54.899,65.744c-9.938,11.312-2.054,8.908-2.402,16.105c-0.345,7.197,6.508,14.055,11.653,10.973
			c5.14-3.09,18.502,8.223,18.502,8.223l9.938-6.516c9.253,7.201-10.622,16.109-10.622,16.109
			c-23.991,17.821-44.553,43.865-44.553,43.865l11.453,10.765c-27.272,31.671-23.784,18.025-39.213,26.593
			c-15.424,8.564-31.524,32.216-31.524,32.216S11.166,423.425,11.852,429.596z M88.163,381.839
			c16.683-8.908,15.08,12.796,15.08,12.796c7.54,13.024-16.907,29.242-16.907,29.242C67.038,404.578,88.163,381.839,88.163,381.839z
			"/>
		<path d="M188.232,186.095c-5.176-5.172-15.168-3.553-22.317,3.597l18.723,18.725C191.789,201.263,193.4,191.271,188.232,186.095z"
			/>
	</g>
</g>
<g>
</g>
<g>
</g>
<g>
</g>
<g>
</g>
<g>
</g>
<g>
</g>
<g>
</g>
<g>
</g>
<g>
</g>
<g>
</g>
<g>
</g>
<g>
</g>
<g>
</g>
<g>
</g>
<g>
</g>
</svg>
