<?xml version="1.0" encoding="iso-8859-1"?>
<!-- Generator: Adobe Illustrator 18.1.1, SVG Export Plug-In . SVG Version: 6.00 Build 0)  -->
<svg version="1.1" id="Capa_1" xmlns="http://www.w3.org/2000/svg" xmlns:xlink="http://www.w3.org/1999/xlink" x="0px" y="0px"
	 viewBox="0 0 25.788 25.788" style="enable-background:new 0 0 25.788 25.788;" xml:space="preserve">
<g>
	<path style="fill:#030104;" d="M22.688,5.394c0.369,0.764,0.834,2.541-1.017,3.752c-4.604,3.014-10.097,6.862-11.509,7.833
		c-0.796,0.546-0.94,1.017-1.019,1.639c-0.262,2.107,0.53,4.322-3.673,6.977c-0.766,0.484-1.215-0.029-1.776-0.59
		s-2.079-2.1-2.481-2.502c-0.849-0.851-0.9-1.33,0.116-1.996c1.016-0.667,2.658-1.643,4.173-3.613
		c0.743-0.968,0.768-1.84,0.762-2.588c1.331-0.074,1.952-1.09,1.952-1.09s-1.198,0.502-2.013,0.263
		c0.065-0.364,0.328-0.804,0.718-1.072c1.705-1.171,4.285-2.951,4.285-2.951s0.593-0.348,0.917,0.125
		c0.156,0.229,0.332,0.452,0.461,0.653c0.259,0.405,0.806,1.56,2.807,0.188C18.482,8.299,22.688,5.394,22.688,5.394z"/>
	<path style="fill:none;stroke:#030104;stroke-width:1.1442;stroke-linecap:round;stroke-linejoin:round;stroke-miterlimit:10;" d="
		M6.722,12.951c-0.487,0-1.863,0.024-2.078-2.085"/>
	<path style="fill:none;stroke:#030104;stroke-width:1.1442;stroke-linecap:round;stroke-linejoin:round;stroke-miterlimit:10;" d="
		M3.555,9.784c0,0,0.704,1.889,3.167,1.056"/>
	<path style="fill:#030104;" d="M10.768,18.3c-0.027-0.221-0.228-0.379-0.453-0.352c-1.371,0.174-1.578-0.74-1.597-0.846
		c-0.036-0.221-0.243-0.369-0.461-0.336c-0.221,0.035-0.373,0.242-0.338,0.463c0.076,0.49,0.493,1.287,1.522,1.498
		c0.278,0.059,0.602,0.072,0.976,0.025C10.639,18.725,10.795,18.522,10.768,18.3z"/>
	<path style="fill:#030104;" d="M13.056,8.64l7.149-4.91c0,0,1.696-1.894,1.906-3.348c0.015-0.105-0.066-0.775,0.445-0.049
		c0.248,0.352,2.392,3.447,2.557,3.695s0.135,0.369-0.114,0.361c-0.755-0.025-2.438,0.034-3.737,0.912
		c-0.955,0.645-4.008,3.003-5.478,3.867C14.312,10.033,13.957,9.716,13.056,8.64z"/>
	<path style="fill:none;stroke:#030104;stroke-miterlimit:10;" d="M8.589,20.882c0,0,1.388-0.835,2.936-1.703
		c1.204-0.676,0.969-3.229,0.969-4.551"/>
</g>
<g>
</g>
<g>
</g>
<g>
</g>
<g>
</g>
<g>
</g>
<g>
</g>
<g>
</g>
<g>
</g>
<g>
</g>
<g>
</g>
<g>
</g>
<g>
</g>
<g>
</g>
<g>
</g>
<g>
</g>
</svg>
